<?xml version="1.0" encoding="utf-8"?>
<!-- Generator: Adobe Illustrator 23.1.1, SVG Export Plug-In . SVG Version: 6.00 Build 0)  -->
<svg version="1.1" id="Layer_1" xmlns="http://www.w3.org/2000/svg" xmlns:xlink="http://www.w3.org/1999/xlink" x="0px" y="0px"
	 viewBox="0 0 261.7 153.2" style="enable-background:new 0 0 261.7 153.2;" xml:space="preserve">
<style type="text/css">
	.st0{fill:#010B21;}
	.st1{fill:#EFEFEF;}
	.st2{fill:#EFEFEF;stroke:#EFEFEF;stroke-width:5;stroke-miterlimit:10;}
	.st3{fill:#F4A016;}
	.st4{fill:#2AB38D;stroke:#2AB38D;stroke-width:3;stroke-miterlimit:10;}
	.st5{fill:#C6DBE8;}
	.st6{fill:#2D2A29;}
	.st7{fill:#EFEFEF;stroke:#EFEFEF;stroke-width:2;stroke-miterlimit:10;}
	.st8{fill:url(#SVGID_1_);}
	.st9{fill:#EFEFEF;stroke:#EFEFEF;stroke-width:3;stroke-miterlimit:10;}
	.st10{fill:url(#SVGID_2_);}
	.st11{fill:#3E3A39;stroke:#3E3A39;stroke-width:3;stroke-miterlimit:10;}
	.st12{fill:#CFE8DE;stroke:#2AB38D;stroke-width:5;stroke-miterlimit:10;}
	.st13{fill:#CFE8DE;stroke:#2AB38D;stroke-width:6;stroke-miterlimit:10;}
	.st14{fill:url(#SVGID_3_);}
	.st15{fill:#172345;stroke:#172345;stroke-width:2;stroke-miterlimit:10;}
	.st16{fill:url(#SVGID_4_);}
	.st17{fill:none;stroke:#E83828;stroke-width:2;stroke-miterlimit:10;}
	.st18{fill:none;stroke:#E83828;stroke-width:3;stroke-miterlimit:10;}
	.st19{fill:#E83828;stroke:#E83828;stroke-miterlimit:10;}
	.st20{fill:#E83828;stroke:#E83828;stroke-width:3;stroke-miterlimit:10;}
	.st21{fill:#0E1B39;}
	.st22{fill:#0E1B39;stroke:#172345;stroke-width:5;stroke-miterlimit:10;}
	.st23{fill:url(#SVGID_5_);}
</style>
<g>
	<g>
		<polygon class="st4" points="65.5,100.6 59.5,100.6 59.5,58 41.9,58 41.9,52.7 82.9,52.7 82.9,58 65.5,58 		"/>
		<path class="st4" d="M107.8,51.8c-12.5,0-23.9,9.8-23.9,24.8c0,14.7,11.4,24.8,23.9,24.8c12.5,0,24-9.9,24-24.7
			C131.8,62,120.3,51.8,107.8,51.8z M107.8,96c-10.4,0-18.2-8.6-18.2-19.3c0-10.8,7.8-19.5,18.2-19.5c10.4,0,18.2,8.7,18.2,19.5
			C126,87.4,118.2,96,107.8,96z"/>
		<path class="st4" d="M156.6,52.8h-17.9v47.8h17.1c10.4,0,22.1-8,22.1-23.8C177.9,60.8,166.8,52.8,156.6,52.8z M155.5,95.5h-10.9
			V57.9h11c8.6,0,16.7,6.2,16.7,18.9C172.3,89.2,163.2,95.5,155.5,95.5z"/>
		<path class="st4" d="M200.9,101.1c-6.2,0-11.7-2-16.9-5.8l2.4-4.8c4.9,3.2,9.7,5.2,14.1,5.2c5.6,0,13.5-2.3,13.5-9
			c0-5.3-5.4-6.7-10.2-7.6c-1.5-0.2-2.9-0.4-4.1-0.7c-7.6-1.3-15.7-4.3-15.7-12.9c0-10.6,10.5-13.7,17.9-13.7
			c6.2,0,12.3,2.2,16.9,6.2l-2.9,4.4c-4.3-3.5-9.1-5.4-14.1-5.4c-7.4,0-12.2,3.3-12.2,8.2c0,4.1,5.1,5.6,8.6,6.7
			c1.6,0.5,3.6,0.8,5.4,1.1c2.2,0.4,4.4,0.9,6.2,1.4c5,1.6,9.8,4.7,9.8,12.1C219.7,98.3,207.7,101.1,200.9,101.1z"/>
	</g>
	<linearGradient id="SVGID_1_" gradientUnits="userSpaceOnUse" x1="97.0382" y1="81.9179" x2="114.5096" y2="81.9179">
		<stop  offset="0" style="stop-color:#FFF21F"/>
		<stop  offset="5.948725e-02" style="stop-color:#FFE400"/>
		<stop  offset="0.1303" style="stop-color:#FED700"/>
		<stop  offset="0.2032" style="stop-color:#FDCF00"/>
		<stop  offset="0.2809" style="stop-color:#FCCD00"/>
		<stop  offset="0.6685" style="stop-color:#F1942E"/>
		<stop  offset="0.8876" style="stop-color:#EA652D"/>
		<stop  offset="1" style="stop-color:#E5352B"/>
	</linearGradient>
	<circle class="st8" cx="105.8" cy="81.9" r="8.7"/>
</g>
</svg>
